<svg xmlns:xlink="http://www.w3.org/1999/xlink" id="logo-stacked-mono" xmlns="http://www.w3.org/2000/svg" width="180" height="220" viewBox="0 0 180 220">
                        <g transform="translate(40, 10)">
                            <path d="M65 10 H35 C25 10 25 20 25 20 V 80 C25 90 35 90 35 90 H65 C75 90 75 80 75 80 V 20 C75 10 65 10 65 10 Z" fill="#1e293b"/>
                            <path d="M45 5 L 85 5 C 90 5 95 10 95 15 L 95 65 C 95 70 90 75 85 75 L 60 75" fill="none" stroke="#1e293b" stroke-width="8" stroke-linecap="round" stroke-linejoin="round"/>
                            <path d="M55 40 L65 50 L80 35" stroke="white" stroke-width="8" fill="none" stroke-linecap="round" stroke-linejoin="round"/>
                        </g>
                         <text x="90" y="180" text-anchor="middle" font-family="Nunito, sans-serif" font-size="36" font-weight="800" fill="#1e293b">
                            MantabJo
                        </text>
                    </svg>